<svg width="133" height="19" viewBox="0 0 133 19" fill="none" xmlns="http://www.w3.org/2000/svg">
<path d="M7.608 1.008H10.68L12.624 6.648L14.592 1.008H17.64L14.712 8.76L16.872 14.184L21.696 0.959999H25.296L18.48 18H15.624L12.624 10.848L9.648 18H6.792L0 0.959999H3.552L8.4 14.184L10.512 8.76L7.608 1.008ZM31.5941 18.24C30.2341 18.24 29.0581 17.944 28.0661 17.352C27.0901 16.76 26.3301 15.976 25.7861 15C25.2421 14.008 24.9701 12.936 24.9701 11.784C24.9701 10.6 25.2341 9.512 25.7621 8.52C26.3061 7.512 27.0741 6.712 28.0661 6.12C29.0581 5.512 30.2421 5.208 31.6181 5.208C32.9941 5.208 34.1701 5.512 35.1461 6.12C36.1221 6.712 36.8661 7.504 37.3781 8.496C37.9061 9.472 38.1701 10.528 38.1701 11.664C38.1701 12.08 38.1461 12.44 38.0981 12.744H28.3781C28.4581 13.72 28.8181 14.488 29.4581 15.048C30.1141 15.608 30.8661 15.888 31.7141 15.888C32.3541 15.888 32.9541 15.736 33.5141 15.432C34.0901 15.112 34.4821 14.696 34.6901 14.184L37.4501 14.952C36.9861 15.912 36.2421 16.704 35.2181 17.328C34.1941 17.936 32.9861 18.24 31.5941 18.24ZM28.3061 10.704H34.8821C34.7861 9.76 34.4261 9 33.8021 8.424C33.1941 7.832 32.4501 7.536 31.5701 7.536C30.7061 7.536 29.9621 7.832 29.3381 8.424C28.7301 9 28.3861 9.76 28.3061 10.704ZM48.0013 18.24C47.0413 18.24 46.1853 18.024 45.4333 17.592C44.6813 17.16 44.0893 16.568 43.6573 15.816V18H40.8493V0.48H44.0653V7.632C44.5133 6.88 45.0973 6.288 45.8173 5.856C46.5533 5.424 47.4093 5.208 48.3853 5.208C49.4733 5.208 50.4253 5.512 51.2413 6.12C52.0733 6.712 52.7213 7.504 53.1853 8.496C53.6493 9.488 53.8813 10.576 53.8813 11.76C53.8813 12.976 53.6253 14.072 53.1133 15.048C52.6013 16.024 51.8973 16.8 51.0013 17.376C50.1213 17.952 49.1213 18.24 48.0013 18.24ZM47.1133 15.504C47.8013 15.504 48.4013 15.336 48.9133 15C49.4413 14.664 49.8493 14.216 50.1373 13.656C50.4413 13.08 50.5933 12.456 50.5933 11.784C50.5933 11.096 50.4493 10.464 50.1613 9.888C49.8893 9.296 49.5053 8.824 49.0093 8.472C48.5133 8.12 47.9453 7.944 47.3053 7.944C46.6013 7.944 45.9533 8.184 45.3613 8.664C44.7853 9.128 44.3533 9.704 44.0653 10.392V13.392C44.2733 14.016 44.6813 14.528 45.2893 14.928C45.8973 15.312 46.5053 15.504 47.1133 15.504Z" fill="#2196F3"/>
<path d="M67.2443 5.424C67.1003 5.264 66.7963 5.056 66.3323 4.8C65.8683 4.528 65.3083 4.288 64.6523 4.08C64.0123 3.856 63.3483 3.744 62.6603 3.744C60.8523 3.744 59.9482 4.384 59.9482 5.664C59.9482 6.128 60.0922 6.496 60.3803 6.768C60.6683 7.04 61.1003 7.272 61.6763 7.464C62.2523 7.656 62.9723 7.864 63.8363 8.088C64.9563 8.376 65.9243 8.712 66.7403 9.096C67.5722 9.48 68.2042 9.992 68.6363 10.632C69.0842 11.256 69.3082 12.088 69.3082 13.128C69.3082 14.344 69.0122 15.328 68.4202 16.08C67.8443 16.816 67.0763 17.352 66.1163 17.688C65.1563 18.024 64.1163 18.192 62.9963 18.192C61.7163 18.192 60.4443 18 59.1803 17.616C57.9323 17.216 56.8202 16.672 55.8442 15.984L57.3082 13.128C57.4523 13.272 57.7082 13.464 58.0762 13.704C58.4443 13.928 58.8923 14.16 59.4202 14.4C59.9483 14.624 60.5243 14.816 61.1483 14.976C61.7723 15.136 62.4043 15.216 63.0443 15.216C64.8683 15.216 65.7803 14.632 65.7803 13.464C65.7803 12.968 65.5963 12.568 65.2283 12.264C64.8603 11.96 64.3403 11.704 63.6683 11.496C63.0123 11.288 62.2443 11.056 61.3642 10.8C60.2763 10.496 59.3723 10.16 58.6523 9.792C57.9483 9.408 57.4202 8.936 57.0683 8.376C56.7162 7.8 56.5402 7.072 56.5402 6.192C56.5402 5.024 56.8122 4.048 57.3562 3.264C57.9162 2.464 58.6682 1.864 59.6122 1.464C60.5562 1.048 61.6042 0.839999 62.7562 0.839999C63.9402 0.839999 65.0443 1.032 66.0683 1.416C67.0923 1.8 67.9723 2.24 68.7083 2.736L67.2443 5.424ZM79.4737 17.352C79.0417 17.544 78.5057 17.736 77.8657 17.928C77.2417 18.12 76.5937 18.216 75.9217 18.216C75.3297 18.216 74.7857 18.112 74.2897 17.904C73.7937 17.696 73.3937 17.368 73.0897 16.92C72.8017 16.456 72.6577 15.856 72.6577 15.12V7.896H71.0017V5.424H72.6577V1.344H75.8737V5.424H78.5137V7.896H75.8737V14.04C75.8737 14.472 75.9857 14.784 76.2097 14.976C76.4497 15.168 76.7377 15.264 77.0737 15.264C77.4097 15.264 77.7377 15.208 78.0577 15.096C78.3777 14.984 78.6337 14.888 78.8257 14.808L79.4737 17.352ZM81.7487 13.296V5.424H84.9647V12.6C84.9647 14.536 85.6607 15.504 87.0527 15.504C87.6767 15.504 88.2767 15.32 88.8527 14.952C89.4447 14.568 89.9247 13.992 90.2927 13.224V5.424H93.5087V14.4C93.5087 14.752 93.5647 15 93.6767 15.144C93.7887 15.272 93.9887 15.352 94.2767 15.384V18C93.9567 18.064 93.6847 18.104 93.4607 18.12C93.2527 18.136 93.0607 18.144 92.8847 18.144C92.3087 18.144 91.8367 18.016 91.4687 17.76C91.1167 17.488 90.9087 17.12 90.8447 16.656L90.7727 15.648C90.2127 16.512 89.4927 17.16 88.6127 17.592C87.7327 18.024 86.7647 18.24 85.7087 18.24C84.4127 18.24 83.4287 17.824 82.7567 16.992C82.0847 16.144 81.7487 14.912 81.7487 13.296ZM96.6566 11.712C96.6566 10.512 96.8966 9.416 97.3766 8.424C97.8566 7.432 98.5206 6.648 99.3686 6.072C100.217 5.496 101.185 5.208 102.273 5.208C103.201 5.208 104.033 5.44 104.769 5.904C105.521 6.352 106.105 6.928 106.521 7.632V0.48H109.737V14.4C109.737 14.752 109.793 15 109.905 15.144C110.017 15.272 110.209 15.352 110.481 15.384V18C109.905 18.112 109.449 18.168 109.113 18.168C108.537 18.168 108.057 18.024 107.673 17.736C107.305 17.448 107.097 17.072 107.049 16.608L107.001 15.816C106.537 16.6 105.905 17.2 105.105 17.616C104.321 18.032 103.497 18.24 102.633 18.24C101.465 18.24 100.433 17.952 99.5366 17.376C98.6406 16.784 97.9366 16 97.4246 15.024C96.9126 14.032 96.6566 12.928 96.6566 11.712ZM106.521 13.392V10.392C106.265 9.688 105.825 9.104 105.201 8.64C104.577 8.176 103.937 7.944 103.281 7.944C102.625 7.944 102.049 8.128 101.553 8.496C101.057 8.848 100.673 9.32 100.401 9.912C100.129 10.488 99.9926 11.112 99.9926 11.784C99.9926 12.472 100.145 13.104 100.449 13.68C100.753 14.24 101.161 14.688 101.673 15.024C102.201 15.344 102.801 15.504 103.473 15.504C104.081 15.504 104.681 15.304 105.273 14.904C105.881 14.504 106.297 14 106.521 13.392ZM113.613 3.672V0.48H116.829V3.672H113.613ZM113.613 18V5.424H116.829V18H113.613ZM126.259 18.24C124.883 18.24 123.699 17.944 122.707 17.352C121.731 16.744 120.979 15.944 120.451 14.952C119.923 13.96 119.659 12.888 119.659 11.736C119.659 10.568 119.923 9.488 120.451 8.496C120.995 7.504 121.755 6.712 122.731 6.12C123.723 5.512 124.899 5.208 126.259 5.208C127.619 5.208 128.787 5.512 129.763 6.12C130.755 6.712 131.515 7.504 132.043 8.496C132.571 9.488 132.835 10.568 132.835 11.736C132.835 12.888 132.571 13.96 132.043 14.952C131.515 15.944 130.755 16.744 129.763 17.352C128.787 17.944 127.619 18.24 126.259 18.24ZM122.971 11.736C122.971 12.472 123.115 13.128 123.403 13.704C123.691 14.264 124.083 14.704 124.579 15.024C125.075 15.344 125.635 15.504 126.259 15.504C126.867 15.504 127.419 15.344 127.915 15.024C128.411 14.688 128.803 14.24 129.091 13.68C129.395 13.104 129.547 12.448 129.547 11.712C129.547 10.992 129.395 10.352 129.091 9.792C128.803 9.216 128.411 8.768 127.915 8.448C127.419 8.112 126.867 7.944 126.259 7.944C125.635 7.944 125.075 8.112 124.579 8.448C124.083 8.768 123.691 9.216 123.403 9.792C123.115 10.352 122.971 11 122.971 11.736Z" fill="#212121"/>
</svg>
